<?xml version="1.0" encoding="UTF-8"?>
<svg width="1006px" height="300px" viewBox="0 0 1006 300" version="1.1" xmlns="http://www.w3.org/2000/svg" xmlns:xlink="http://www.w3.org/1999/xlink">
    <!-- Generator: Sketch 61.2 (89653) - https://sketch.com -->
    <title>logoBranding</title>
    <desc>Created with Sketch.</desc>
    <g id="Tiles" stroke="none" stroke-width="1" fill="none" fill-rule="evenodd">
        <g transform="translate(546.000000, 0.000000)" id="Rectangle">
            <rect fill="#3498D6" x="0" y="0" width="140" height="140" rx="8"></rect>
            <rect fill="#FCE972" x="160" y="0" width="140" height="300" rx="8"></rect>
            <rect fill="#3498D6" x="0" y="160" width="140" height="140" rx="8"></rect>
            <rect fill="#ED4743" x="320" y="0" width="140" height="140" rx="8"></rect>
            <rect fill="#ED4743" x="320" y="160" width="140" height="140" rx="8"></rect>
        </g>
        <path d="M46.62,219.16 C54.9,219.16 61.74,218.62 67.14,217.54 C72.54,216.46 76.98,215.32 80.46,214.12 L80.46,214.12 L80.46,77.32 L68.76,79.48 L68.76,129.52 C66.72,127.96 63.45,126.31 58.95,124.57 C54.45,122.83 49.14,121.96 43.02,121.96 C36.3,121.96 30.33,123.16 25.11,125.56 C19.89,127.96 15.48,131.32 11.88,135.64 C8.28,139.96 5.55,145.09 3.69,151.03 C1.83,156.97 0.9,163.48 0.9,170.56 C0.9,178.12 2.01,184.9 4.23,190.9 C6.45,196.9 9.57,202 13.59,206.2 C17.61,210.4 22.41,213.61 27.99,215.83 C33.57,218.05 39.78,219.16 46.62,219.16 Z M46.8,208.54 C36.72,208.54 28.62,205.27 22.5,198.73 C16.38,192.19 13.32,182.8 13.32,170.56 C13.32,165.4 13.86,160.51 14.94,155.89 C16.02,151.27 17.76,147.25 20.16,143.83 C22.56,140.41 25.71,137.68 29.61,135.64 C33.51,133.6 38.34,132.58 44.1,132.58 C46.86,132.58 49.5,132.85 52.02,133.39 C54.54,133.93 56.88,134.62 59.04,135.46 C61.2,136.3 63.09,137.2 64.71,138.16 C66.33,139.12 67.68,140.02 68.76,140.86 L68.76,140.86 L68.76,206.02 C66.96,206.62 64.29,207.19 60.75,207.73 C57.21,208.27 52.56,208.54 46.8,208.54 Z M138.78,218.98 C142.62,218.98 146.37,218.83 150.03,218.53 C153.69,218.23 157.02,217.84 160.02,217.36 C163.02,216.88 165.66,216.43 167.94,216.01 C170.22,215.59 171.96,215.2 173.16,214.84 L173.16,214.84 L173.16,156.16 C173.16,151.24 172.56,146.68 171.36,142.48 C170.16,138.28 168.24,134.65 165.6,131.59 C162.96,128.53 159.51,126.13 155.25,124.39 C150.99,122.65 145.8,121.78 139.68,121.78 C133.68,121.78 128.55,122.2 124.29,123.04 C120.03,123.88 116.88,124.78 114.84,125.74 L114.84,125.74 L116.46,136 C118.02,135.4 120.48,134.62 123.84,133.66 C127.2,132.7 132.3,132.22 139.14,132.22 C143.94,132.22 147.81,132.97 150.75,134.47 C153.69,135.97 155.97,137.95 157.59,140.41 C159.21,142.87 160.26,145.63 160.74,148.69 C161.22,151.75 161.46,154.9 161.46,158.14 L161.46,158.14 L161.46,163.9 C160.98,163.66 160.11,163.39 158.85,163.09 C157.59,162.79 156.09,162.49 154.35,162.19 C152.61,161.89 150.81,161.65 148.95,161.47 C147.09,161.29 145.32,161.2 143.64,161.2 C138,161.2 132.78,161.74 127.98,162.82 C123.18,163.9 119.04,165.61 115.56,167.95 C112.08,170.29 109.38,173.26 107.46,176.86 C105.54,180.46 104.58,184.78 104.58,189.82 C104.58,195.1 105.45,199.57 107.19,203.23 C108.93,206.89 111.33,209.89 114.39,212.23 C117.45,214.57 121.05,216.28 125.19,217.36 C129.33,218.44 133.86,218.98 138.78,218.98 Z M140.76,208.54 C137.04,208.54 133.71,208.21 130.77,207.55 C127.83,206.89 125.31,205.84 123.21,204.4 C121.11,202.96 119.49,201.04 118.35,198.64 C117.21,196.24 116.64,193.3 116.64,189.82 C116.64,185.86 117.48,182.68 119.16,180.28 C120.84,177.88 123,175.99 125.64,174.61 C128.28,173.23 131.16,172.33 134.28,171.91 C137.4,171.49 140.4,171.28 143.28,171.28 C148.32,171.28 152.28,171.61 155.16,172.27 C158.04,172.93 160.14,173.56 161.46,174.16 L161.46,174.16 L161.46,206.92 C159.06,207.4 156.15,207.79 152.73,208.09 C149.31,208.39 145.32,208.54 140.76,208.54 Z M222.12,219.16 C233.04,219.16 241.65,217 247.95,212.68 C254.25,208.36 257.4,202 257.4,193.6 C257.4,189.16 256.62,185.47 255.06,182.53 C253.5,179.59 251.46,177.07 248.94,174.97 C246.42,172.87 243.51,171.07 240.21,169.57 C236.91,168.07 233.46,166.6 229.86,165.16 C226.38,163.72 223.29,162.4 220.59,161.2 C217.89,160 215.61,158.71 213.75,157.33 C211.89,155.95 210.48,154.36 209.52,152.56 C208.56,150.76 208.08,148.6 208.08,146.08 C208.08,143.56 208.62,141.43 209.7,139.69 C210.78,137.95 212.22,136.51 214.02,135.37 C215.82,134.23 217.89,133.39 220.23,132.85 C222.57,132.31 225.06,132.04 227.7,132.04 C234.3,132.04 239.31,132.64 242.73,133.84 C246.15,135.04 248.58,136 250.02,136.72 L250.02,136.72 L252.72,126.28 C251.04,125.44 248.13,124.48 243.99,123.4 C239.85,122.32 234.6,121.78 228.24,121.78 C218.28,121.78 210.45,124.12 204.75,128.8 C199.05,133.48 196.2,139.6 196.2,147.16 C196.2,151.12 196.92,154.48 198.36,157.24 C199.8,160 201.72,162.37 204.12,164.35 C206.52,166.33 209.28,168.07 212.4,169.57 C215.52,171.07 218.82,172.54 222.3,173.98 C226.62,175.78 230.25,177.34 233.19,178.66 C236.13,179.98 238.5,181.36 240.3,182.8 C242.1,184.24 243.39,185.86 244.17,187.66 C244.95,189.46 245.34,191.62 245.34,194.14 C245.34,199.42 243.15,203.17 238.77,205.39 C234.39,207.61 228.84,208.72 222.12,208.72 C218.4,208.72 215.13,208.48 212.31,208 C209.49,207.52 207.06,206.95 205.02,206.29 C202.98,205.63 201.36,205.03 200.16,204.49 C198.96,203.95 198.18,203.56 197.82,203.32 L197.82,203.32 L194.76,213.94 C196.2,214.66 199.08,215.71 203.4,217.09 C207.72,218.47 213.96,219.16 222.12,219.16 Z M291.78,217 L291.78,136.9 C292.26,136.66 293.31,136.3 294.93,135.82 C296.55,135.34 298.38,134.89 300.42,134.47 C302.46,134.05 304.65,133.66 306.99,133.3 C309.33,132.94 311.52,132.76 313.56,132.76 C318.84,132.76 323.22,133.39 326.7,134.65 C330.18,135.91 332.97,137.98 335.07,140.86 C337.17,143.74 338.67,147.46 339.57,152.02 C340.47,156.58 340.92,162.16 340.92,168.76 L340.92,168.76 L340.92,217 L352.62,217 L352.62,164.98 C352.62,158.62 352.05,152.8 350.91,147.52 C349.77,142.24 347.76,137.71 344.88,133.93 C342,130.15 338.16,127.24 333.36,125.2 C328.56,123.16 322.56,122.14 315.36,122.14 C311.4,122.14 307.44,122.53 303.48,123.31 C299.52,124.09 295.62,125.2 291.78,126.64 L291.78,126.64 L291.78,77.32 L280.08,79.48 L280.08,217 L291.78,217 Z M388.26,104.86 C390.66,104.86 392.7,104.05 394.38,102.43 C396.06,100.81 396.9,98.62 396.9,95.86 C396.9,93.1 396.06,90.91 394.38,89.29 C392.7,87.67 390.66,86.86 388.26,86.86 C385.86,86.86 383.82,87.67 382.14,89.29 C380.46,90.91 379.62,93.1 379.62,95.86 C379.62,98.62 380.46,100.81 382.14,102.43 C383.82,104.05 385.86,104.86 388.26,104.86 Z M394.2,217 L394.2,123.94 L382.5,123.94 L382.5,217 L394.2,217 Z M465.3,218.98 C471.54,218.98 476.97,218.32 481.59,217 C486.21,215.68 489.36,214.54 491.04,213.58 L491.04,213.58 L488.88,203.5 C487.2,204.34 484.5,205.36 480.78,206.56 C477.06,207.76 472.02,208.36 465.66,208.36 C454.14,208.36 445.74,205.3 440.46,199.18 C435.18,193.06 432.36,184.3 432,172.9 L432,172.9 L497.34,172.9 C497.46,172.06 497.55,171.16 497.61,170.2 C497.67,169.24 497.7,168.28 497.7,167.32 C497.7,151.84 494.31,140.38 487.53,132.94 C480.75,125.5 471.66,121.78 460.26,121.78 C455.1,121.78 450.09,122.77 445.23,124.75 C440.37,126.73 436.05,129.76 432.27,133.84 C428.49,137.92 425.43,142.99 423.09,149.05 C420.75,155.11 419.58,162.22 419.58,170.38 C419.58,177.46 420.42,183.97 422.1,189.91 C423.78,195.85 426.48,200.98 430.2,205.3 C433.92,209.62 438.66,212.98 444.42,215.38 C450.18,217.78 457.14,218.98 465.3,218.98 Z M485.64,163 L432.36,163 C432.6,158.92 433.41,155.02 434.79,151.3 C436.17,147.58 438.09,144.31 440.55,141.49 C443.01,138.67 445.89,136.42 449.19,134.74 C452.49,133.06 456.24,132.22 460.44,132.22 C468.36,132.22 474.48,134.92 478.8,140.32 C483.12,145.72 485.4,153.28 485.64,163 L485.64,163 Z" id="dashie" fill="#FFFFFF" fill-rule="nonzero"></path>
    </g>
</svg>